PathFileType	4	(X/Y/Z)	C:\Users\u0145647\OneDrive - KU Leuven\KU Leuven\c3d2osim\CP4\T0\Data\Processed\ViconC3D_CP4_2\CP4_T0_cmj_T1_gapFilled.trc
DataRate	CameraRate	NumFrames	NumMarkers	Units	OrigDataRate	OrigDataStartFrame	OrigNumFrames
100.000000	100.000000	4	47	mm	100.000000	230	459
Frame#	Time	C7			T10			CLAV			STRN			LSHO			RSHO			RBAK			LASI			RASI			LPSI			RPSI			LLAT			RLAT			LF1			LF2			LF3			LTHI			LKNE			LMEK			RF1			RF2			RF3			RTHI			RKNE			RMEK			LT1			LT2			LT3			LTIB			LANK			LMM			RT1			RT2			RT3			RTIB			RANK			RMM			LHEE			LSTL			LLCA			LTOE			LCM5			RHEE			RSTL			RLCA			RTOE			RCM5
		X1	Y1	Z1	X2	Y2	Z2	X3	Y3	Z3	X4	Y4	Z4	X5	Y5	Z5	X6	Y6	Z6	X7	Y7	Z7	X8	Y8	Z8	X9	Y9	Z9	X10	Y10	Z10	X11	Y11	Z11	X12	Y12	Z12	X13	Y13	Z13	X14	Y14	Z14	X15	Y15	Z15	X16	Y16	Z16	X17	Y17	Z17	X18	Y18	Z18	X19	Y19	Z19	X20	Y20	Z20	X21	Y21	Z21	X22	Y22	Z22	X23	Y23	Z23	X24	Y24	Z24	X25	Y25	Z25	X26	Y26	Z26	X27	Y27	Z27	X28	Y28	Z28	X29	Y29	Z29	X30	Y30	Z30	X31	Y31	Z31	X32	Y32	Z32	X33	Y33	Z33	X34	Y34	Z34	X35	Y35	Z35	X36	Y36	Z36	X37	Y37	Z37	X38	Y38	Z38	X39	Y39	Z39	X40	Y40	Z40	X41	Y41	Z41	X42	Y42	Z42	X43	Y43	Z43	X44	Y44	Z44	X45	Y45	Z45	X46	Y46	Z46	X47	Y47	Z47

230	2.29	-90.661	1656.2	-255.52	-68.903	1400.5	-293.07	-104.5	1574.1	-139.22	-112.69	1423.1	-111.34	102.42	1618.8	-165.95	-276.28	1632.4	-212.92	-207.2	1598.2	-295.53	-41.923	1123.9	-130.44	-225.11	1147	-211.2	-33.917	1174.2	-303.16	-97.563	1188.2	-333.99	27.281	1195	-158.37	-239.51	1230.4	-273.81	67.337	873.97	-183.7	64.111	919.34	-192.83	74.673	873.16	-217.67	124.88	806.6	-210.26	72.31	666.87	-216.96	NaN	NaN	NaN	-293.92	880.12	-290.34	-295.25	913.39	-270.72	-272.79	910.97	-329.58	-341.43	824.32	-292.34	-296.61	689.73	-244.93	NaN	NaN	NaN	123.76	503.72	-287.44	104.31	538.14	-241.23	115.15	549.08	-290.25	158.66	438.29	-238.29	135.57	269.61	-324.33	52.113	261.98	-306.63	-333.05	547.6	-292.07	-317.9	584.81	-259.63	-321.7	596.48	-310.51	-385.32	484.15	-297.58	-350.83	305.76	-340.08	-270.23	301.49	-310.46	91.736	263.35	-373.76	59.389	234.38	-317.25	135.66	238.35	-326.42	101.71	159.27	-232.15	146	160.8	-241.6	-301.96	308.46	-382.87	-277.66	268.73	-323.59	-352.54	277.76	-341.97	-348.43	206.91	-235.5	-395.39	216.71	-267.98
231	2.3	-91.038	1653.5	-257.62	-67.945	1397.9	-293.86	-105.45	1571.5	-140.94	-113.99	1420.7	-112.51	101.87	1616.1	-167.09	-277.26	1628.9	-215.63	-207.12	1594.9	-297.96	-43.39	1121.1	-129.25	-226.16	1144.5	-210.16	-35.074	1170.9	-302.24	-98.651	1184.8	-333.26	25.853	1192	-157.69	-240.57	1226.8	-273.7	66.891	871.77	-184.04	63.314	917.09	-192.6	74.103	871.3	-217.89	124.58	804.87	-211.87	72.238	664.78	-219.82	NaN	NaN	NaN	-295.06	876.08	-290.64	-296.81	909.41	-271.19	-273.21	906.66	-329.6	-342.46	820.19	-292.9	-298.7	686.19	-245.18	NaN	NaN	NaN	123.05	501.19	-290.33	104.67	536.09	-244.02	114.53	546.5	-293.65	159.21	436.51	-241.45	134.22	267.08	-324.74	51.216	259.24	-305.42	-334.45	544.06	-292.38	-320.2	581.65	-259.96	-322.46	592.57	-311.01	-386.7	480.67	-298.23	-351.75	301.82	-337.88	-271.83	297.52	-306.55	89.431	260.88	-373.14	58.169	231.77	-316.11	134.45	235.77	-327	102.05	155.72	-232.55	146.1	157.14	-242.8	-302.14	303.97	-379.67	-279.03	264.58	-319.6	-353.79	273.95	-339.34	-351.95	204.23	-232.04	-398.31	214.13	-265.66
232	2.31	-91.661	1649.5	-259.91	-67.618	1393.6	-294.14	-106.39	1568.2	-143.22	-115.15	1417.5	-113.66	101.29	1612.4	-168.75	-278.43	1624.6	-218.52	-207.38	1590.5	-300.2	-44.572	1117.9	-128.53	-227.29	1140.2	-209.74	-36.599	1167	-301.45	-100.14	1180.1	-332.75	24.249	1188.7	-156.73	-241.98	1221.9	-273.21	66.203	868.67	-183.74	62.355	914.37	-191.74	73.651	868.83	-217.49	124.27	802.16	-212.39	72.07	661.74	-222.35	NaN	NaN	NaN	-296.39	870.8	-290.95	-298.48	904.24	-271.72	-273.85	901.03	-329.58	-343.84	814.87	-293.89	-300.77	681.55	-245.98	NaN	NaN	NaN	122.48	497.47	-292.74	104.75	533	-246.41	113.73	542.84	-296.24	159.33	433.46	-243.82	132.45	263.37	-324.76	49.921	255.39	-303.81	-335.73	539.37	-292.96	-322.44	577.3	-260.6	-323.34	587.65	-311.9	-388.2	476.14	-299.56	-352.95	296.98	-335.56	-273.7	292.63	-302.77	86.723	257.48	-372.27	56.456	227.87	-314.64	132.63	232.06	-327.11	102.49	151.1	-232.86	146.36	152.86	-244.32	-302.43	298.66	-376.59	-280.73	259.77	-315.81	-355.07	269.08	-336.98	-355.69	200.28	-229.13	-401.2	210.01	-263.69
233	2.32	-92.431	1644.5	-262.58	-68.146	1387.9	-293.56	-107.32	1563.7	-145.54	-116.33	1413.4	-114.73	100.63	1607.9	-170.7	-279.71	1619.3	-221.45	-207.71	1584.8	-302.11	-46.007	1113.9	-127.53	-228.12	1134.8	-209.45	-38.26	1162.2	-300.94	-101.86	1174.3	-332.59	23.072	1184.8	-155.91	-243.2	1216	-272	65.111	864.7	-182.95	61.355	910.37	-190.39	73.395	865.31	-216.46	124	798.74	-211.74	71.614	657.6	-224.35	NaN	NaN	NaN	-297.62	864.41	-291.51	-300.08	897.9	-272.29	-274.79	894.5	-329.72	-344.82	808.31	-295.37	-302.92	675.96	-246.95	NaN	NaN	NaN	121.38	492.72	-294.44	104.39	528.66	-248.39	112.61	538.24	-298.24	158.96	429.02	-245.25	130.5	258.89	-324.77	48.542	250.16	-302.26	-337.26	533.78	-293.57	-324.59	571.97	-261.33	-324.32	581.94	-312.78	-389.82	470.67	-300.74	-354.62	291.35	-333.63	-275.75	287.06	-299.81	84.052	252.95	-371.43	54.986	222.87	-313.29	130.86	227.61	-327.17	103.34	145.69	-232.91	146.98	148.27	-245.44	-303.53	292.84	-373.99	-282.58	254.24	-312.69	-356.4	263.39	-334.96	-358.38	194.54	-227.05	-403.45	204.24	-261.96
